# Blender v2.81 (sub 16) OBJ File: 'Separated_Light_Lamp_Lamp_Glass.blend'
# www.blender.org
mtllib Separated_Light_Lamp_Lamp_Glass.mtl
o LightLamp.000_LightLamp.002
v 3.330840 13.238362 -0.428473
v 3.426375 14.770980 -0.545338
v 2.978685 14.770980 -0.730775
v 2.978685 13.238362 -0.574333
v 2.530358 14.770980 -0.545075
v 2.627468 13.238362 -0.428855
v 2.548845 13.238362 -0.348845
v 2.432887 14.770980 -0.446585
v 2.247908 14.770980 0.000002
v 2.404350 13.238362 0.000002
v 2.433510 14.770980 0.448097
v 2.549798 13.238362 0.351145
v 2.628202 13.238362 0.429167
v 2.532600 14.770980 0.546010
v 2.978685 14.770980 0.730780
v 2.978685 13.238362 0.574337
v 3.427868 14.770980 0.544727
v 3.329685 13.238362 0.428950
v 3.407317 13.238362 0.351760
v 3.524685 14.770980 0.446095
v 3.709462 14.770980 0.000002
v 3.553020 13.238362 0.000002
v 3.524625 14.770980 -0.446248
v 3.408412 13.238362 -0.349130
v 2.978685 14.770988 -0.758390
v 3.444300 14.770988 -0.565528
v 3.348472 13.238362 -0.447725
v 2.978685 13.238362 -0.600890
v 2.511240 14.770988 -0.564770
v 2.608755 13.238362 -0.447665
v 2.220292 14.770988 0.000002
v 2.413058 14.770988 -0.465358
v 2.529570 13.238362 -0.366433
v 2.377793 13.238362 0.000002
v 2.413058 14.770988 0.465362
v 2.533283 13.238362 0.367022
v 2.978685 14.770988 0.758395
v 2.513167 14.770988 0.565570
v 2.609115 13.238362 0.447820
v 2.978685 13.238362 0.600895
v 3.444937 14.770988 0.565270
v 3.348000 13.238362 0.447925
v 3.737077 14.770988 0.000002
v 3.545482 14.770988 0.462550
v 3.426037 13.238362 0.370682
v 3.579578 13.238362 0.000002
v 3.543097 14.770988 -0.468313
v 3.426502 13.238362 -0.369568
v 2.978685 14.762258 -0.758390
v 2.220292 14.762258 0.000002
v 2.978685 14.762258 0.758395
v 3.737077 14.762258 0.000002
v 2.374545 13.262842 0.000002
v 2.298308 13.262842 0.000002
v 2.978685 13.237402 -0.604138
v 2.978685 13.237402 -0.577438
v 2.374545 13.237402 0.000002
v 2.401245 13.237402 0.000002
v 2.978685 13.237402 0.604142
v 2.978685 13.237402 0.577442
v 3.582825 13.237402 0.000002
v 3.556125 13.237402 0.000002
v 3.709462 14.762258 0.000002
v 2.978685 14.762258 0.730780
v 2.247908 14.762258 0.000002
v 2.978685 14.762258 -0.730775
v 2.978685 13.262842 -0.577438
v 2.401245 13.262842 0.000002
v 2.978685 13.262842 0.577442
v 3.556125 13.262842 0.000002
v 2.978685 14.771445 -0.758390
v 2.220292 14.771445 0.000002
v 2.978685 14.771445 0.758395
v 3.737077 14.771445 0.000002
v 2.978685 14.771438 -0.730775
v 2.247908 14.771438 0.000002
v 2.978685 14.771438 0.730780
v 3.709462 14.771438 0.000002
v 3.329685 13.238362 0.428950
v 3.427868 14.770980 0.544727
v 3.524685 14.770980 0.446095
v 3.407317 13.238362 0.351760
v 3.444937 14.770988 0.565270
v 3.348000 13.238362 0.447925
v 3.426037 13.238362 0.370682
v 3.545482 14.770988 0.462550
v 3.426375 14.770980 -0.545338
v 3.330840 13.238362 -0.428473
v 3.408412 13.238362 -0.349130
v 3.524625 14.770980 -0.446248
v 3.348472 13.238362 -0.447725
v 3.444300 14.770988 -0.565528
v 3.543097 14.770988 -0.468313
v 3.426502 13.238362 -0.369568
v 2.627468 13.238362 -0.428855
v 2.530358 14.770980 -0.545075
v 2.432887 14.770980 -0.446585
v 2.548845 13.238362 -0.348845
v 2.511240 14.770988 -0.564770
v 2.608755 13.238362 -0.447665
v 2.529570 13.238362 -0.366433
v 2.413058 14.770988 -0.465358
v 2.549798 13.238362 0.351145
v 2.433510 14.770980 0.448097
v 2.532600 14.770980 0.546010
v 2.628202 13.238362 0.429167
v 2.413058 14.770988 0.465362
v 2.533283 13.238362 0.367022
v 2.609115 13.238362 0.447820
v 2.513167 14.770988 0.565570
vt 0.421665 0.206300
vt 0.415219 0.104956
vt 0.444238 0.104956
vt 0.444147 0.206300
vt 0.473295 0.104956
vt 0.466567 0.206300
vt 0.366557 0.206300
vt 0.358682 0.104956
vt 0.381708 0.104956
vt 0.384284 0.206300
vt 0.404913 0.104956
vt 0.402183 0.206300
vt 0.484353 0.206300
vt 0.482712 0.104956
vt 0.508989 0.104956
vt 0.504674 0.206300
vt 0.535279 0.104956
vt 0.524935 0.206300
vt 0.547994 0.206300
vt 0.546163 0.104956
vt 0.571269 0.104956
vt 0.567477 0.206300
vt 0.596225 0.104956
vt 0.586729 0.206300
vt 0.444239 0.103458
vt 0.414440 0.103458
vt 0.421579 0.008652
vt 0.444323 0.008652
vt 0.474153 0.103458
vt 0.467080 0.008652
vt 0.381668 0.103458
vt 0.357972 0.103458
vt 0.361116 0.008652
vt 0.379171 0.008652
vt 0.405458 0.103458
vt 0.397138 0.008652
vt 0.509061 0.103458
vt 0.481967 0.103458
vt 0.493050 0.008652
vt 0.513487 0.008652
vt 0.536015 0.103458
vt 0.534236 0.008652
vt 0.571321 0.103458
vt 0.545627 0.103458
vt 0.555139 0.008652
vt 0.574769 0.008652
vt 0.597221 0.103458
vt 0.594571 0.008652
vt 0.493971 0.005854
vt 0.513559 0.005854
vt 0.533507 0.005854
vt 0.555984 0.005854
vt 0.574826 0.005854
vt 0.593733 0.005854
vt 0.422417 0.005854
vt 0.444327 0.005854
vt 0.466164 0.005854
vt 0.361743 0.005854
vt 0.379136 0.005854
vt 0.396503 0.005854
vt 0.544303 0.103458
vt 0.553811 0.008652
vt 0.537436 0.103458
vt 0.535637 0.008652
vt 0.480531 0.103458
vt 0.491661 0.008652
vt 0.406688 0.103458
vt 0.398190 0.008652
vt 0.356699 0.103458
vt 0.359901 0.008652
vt 0.475747 0.103458
vt 0.468620 0.008652
vt 0.412872 0.103458
vt 0.420063 0.008652
vt 0.598680 0.103458
vt 0.595954 0.008652
vt 0.638496 0.085793
vt 0.637116 0.085934
vt 0.636831 0.008435
vt 0.638166 0.008299
vt 0.628149 0.085724
vt 0.629616 0.008241
vt 0.630761 0.008376
vt 0.629487 0.085882
vt 0.665632 0.086566
vt 0.666671 0.009063
vt 0.667998 0.009211
vt 0.667004 0.086720
vt 0.675898 0.086599
vt 0.674531 0.086743
vt 0.674146 0.009224
vt 0.675452 0.009087
vt 0.608491 0.085224
vt 0.611427 0.007900
vt 0.612785 0.008086
vt 0.609923 0.085419
vt 0.618725 0.085514
vt 0.617374 0.085624
vt 0.618758 0.008256
vt 0.620065 0.008151
vt 0.658269 0.085808
vt 0.656941 0.085947
vt 0.656765 0.008461
vt 0.658097 0.008323
vt 0.647881 0.085694
vt 0.649550 0.008232
vt 0.650867 0.008393
vt 0.649215 0.085857
vn -0.3810 0.0939 0.9198
vn 0.3810 0.0939 0.9198
vn 0.9198 0.0939 0.3810
vn 0.9198 0.0939 -0.3810
vn 0.3810 0.0939 -0.9198
vn -0.3810 0.0939 -0.9198
vn -0.9198 0.0939 -0.3810
vn -0.9198 0.0939 0.3810
vn -0.0003 -0.1022 -0.9948
vn 0.3810 -0.0945 -0.9197
vn -0.0005 -0.1022 -0.9948
vn -0.3810 -0.0945 -0.9197
vn -0.9947 -0.1028 0.0021
vn -0.9197 -0.0945 -0.3810
vn -0.9947 -0.1028 0.0018
vn -0.9183 -0.0955 0.3842
vn -0.0000 -0.1022 0.9948
vn -0.3810 -0.0945 0.9197
vn 0.0003 -0.1022 0.9948
vn 0.3810 -0.0945 0.9197
vn 0.9948 -0.1022 -0.0011
vn 0.9197 -0.0945 0.3810
vn 0.9197 -0.0945 -0.3810
vn 0.0000 -1.0000 0.0000
vn 0.0003 1.0000 -0.0001
vn 0.0003 1.0000 0.0000
vn 0.0003 1.0000 0.0001
vn 0.0001 1.0000 0.0003
vn 0.0000 1.0000 0.0003
vn -0.0001 1.0000 0.0003
vn -0.0003 1.0000 0.0001
vn 0.0001 1.0000 0.0000
vn -0.0003 1.0000 -0.0001
vn -0.0001 1.0000 -0.0003
vn 0.0000 1.0000 -0.0003
vn 0.0001 1.0000 -0.0003
vn -0.6670 0.0063 0.7450
vn 0.7450 0.0033 -0.6671
vn -0.7042 0.0103 -0.7099
vn 0.6675 0.0041 0.7446
vn 0.6809 0.0047 -0.7323
vn -0.7133 0.0081 0.7008
vn 0.7427 0.0049 0.6696
vn -0.7580 0.0159 -0.6521
vn 0.7042 -0.0103 0.7099
vn -0.6675 -0.0041 -0.7446
vn 0.7133 -0.0081 -0.7008
vn -0.6809 -0.0047 0.7323
vn 0.7580 -0.0159 0.6521
vn -0.7427 -0.0049 -0.6696
vn 0.6670 -0.0063 -0.7450
vn -0.7450 -0.0033 0.6671
usemtl aiStandardSurface5SG.002
s 1
f 1/1/1 2/2/1 3/3/1 4/4/1
f 4/4/2 3/3/2 5/5/2 6/6/2
f 7/7/3 8/8/3 9/9/3 10/10/3
f 10/10/4 9/9/4 11/11/4 12/12/4
f 13/13/5 14/14/5 15/15/5 16/16/5
f 16/16/6 15/15/6 17/17/6 18/18/6
f 19/19/7 20/20/7 21/21/7 22/22/7
f 22/22/8 21/21/8 23/23/8 24/24/8
f 25/25/9 26/26/10 27/27/10 28/28/11
f 29/29/12 25/25/9 28/28/11 30/30/12
f 31/31/13 32/32/14 33/33/14 34/34/15
f 35/35/16 31/31/13 34/34/15 36/36/16
f 37/37/17 38/38/18 39/39/18 40/40/19
f 41/41/20 37/37/17 40/40/19 42/42/20
f 43/43/21 44/44/22 45/45/22 46/46/21
f 47/47/23 43/43/21 46/46/21 48/48/23
f 13/49/24 16/50/24 40/40/24 39/39/24
f 16/50/24 18/51/24 42/42/24 40/40/24
f 19/52/24 22/53/24 46/46/24 45/45/24
f 22/53/24 24/54/24 48/48/24 46/46/24
f 1/55/24 4/56/24 28/28/24 27/27/24
f 4/56/24 6/57/24 30/30/24 28/28/24
f 7/58/24 10/59/24 34/34/24 33/33/24
f 10/59/24 12/60/24 36/36/24 34/34/24
f 11/11/25 9/9/26 31/31/26 35/35/25
f 9/9/26 8/8/27 32/32/27 31/31/26
f 5/5/28 3/3/29 25/25/29 29/29/28
f 3/3/29 2/2/30 26/26/30 25/25/29
f 23/23/31 21/21/32 43/43/32 47/47/31
f 21/21/32 20/20/33 44/44/33 43/43/32
f 17/17/34 15/15/35 37/37/35 41/41/34
f 15/15/35 14/14/36 38/38/36 37/37/35
f 20/61/37 19/62/37 45/45/37 44/44/37
f 17/63/38 41/41/38 42/42/38 18/64/38
f 14/65/39 13/66/39 39/39/39 38/38/39
f 11/67/40 35/35/40 36/36/40 12/68/40
f 8/69/41 7/70/41 33/33/41 32/32/41
f 5/71/42 29/29/42 30/30/42 6/72/42
f 2/73/43 1/74/43 27/27/43 26/26/43
f 23/75/44 47/47/44 48/48/44 24/76/44
usemtl aiStandardSurface3SG.002
f 105/77/45 110/78/45 109/79/45 106/80/45
f 104/81/46 103/82/46 108/83/46 107/84/46
f 96/85/47 95/86/47 100/87/47 99/88/47
f 97/89/48 102/90/48 101/91/48 98/92/48
f 90/93/49 89/94/49 94/95/49 93/96/49
f 87/97/50 92/98/50 91/99/50 88/100/50
f 81/101/51 86/102/51 85/103/51 82/104/51
f 80/105/52 79/106/52 84/107/52 83/108/52
l 53 54
l 55 56
l 57 58
l 59 60
l 61 62
l 56 67
l 58 68
l 53 57
l 60 69
l 62 70
l 49 71
l 50 72
l 51 73
l 52 74
l 66 75
l 65 76
l 64 77
l 63 78
l 71 75
l 74 78
l 73 77
l 72 76
