# Blender v2.81 (sub 16) OBJ File: 'TownCenter_Centerwalk.blend'
# www.blender.org
mtllib TownCenter_Centerwalk.mtl
o Cube
v -135.000000 0.499999 -59.999996
v -135.000000 -0.499999 -59.999996
v -130.786743 0.499999 48.889244
v -130.786743 -0.499999 48.889244
v -127.677681 0.499999 52.677658
v -127.677681 -0.499999 52.677658
v -123.889259 0.499999 55.786732
v -123.889259 -0.499999 55.786732
v -134.519623 0.499999 39.877235
v -134.519623 -0.499999 39.877235
v -135.000000 0.499999 34.999973
v -135.000000 -0.499999 34.999977
v -119.567085 0.500000 58.096989
v -119.567085 -0.499999 58.096985
v -133.096985 0.499999 44.567066
v -133.096985 -0.499999 44.567066
v -110.000000 0.499999 59.999996
v -109.999992 -0.499999 59.999996
v -114.877258 0.500000 59.519630
v -114.877258 -0.499999 59.519630
v -123.858192 0.499999 40.740242
v -123.858192 -0.499999 40.740242
v -122.472046 0.499999 43.333542
v -122.472046 -0.499999 43.333542
v -124.711777 0.499999 37.926338
v -124.711777 -0.499999 37.926338
v -120.606606 0.499999 45.606594
v -120.606606 -0.499999 45.606590
v -112.926353 0.499999 49.711773
v -112.926353 -0.499999 49.711777
v -109.999992 0.499999 50.000000
v -110.000000 -0.499999 50.000000
v -115.740250 0.499999 48.858185
v -115.740250 -0.499999 48.858189
v -124.999992 0.499999 34.999985
v -124.999992 -0.499999 34.999985
v -118.333549 0.499999 47.472038
v -118.333549 -0.499999 47.472034
v -125.000000 0.500000 0.000000
v -125.000000 -0.499999 0.000000
v -125.000000 0.499999 -50.000000
v -125.000000 -0.499999 -50.000000
v -94.999992 0.499999 50.000000
v -94.999992 -0.499999 50.000000
v -95.000031 0.499999 59.999996
v -95.000023 -0.499999 59.999996
v -95.000000 0.499999 -50.000000
v -94.999992 0.499999 -56.000000
v -94.999992 0.499999 -59.999996
v -95.000000 -0.499999 -50.000000
v -94.999992 -0.499999 -59.999996
v -94.999992 -0.499999 -56.000000
v 135.000000 0.499999 60.000000
v 135.000000 -0.499999 60.000000
v 130.786743 0.499999 -48.889244
v 130.786743 -0.499999 -48.889244
v 127.677689 0.499999 -52.677662
v 127.677689 -0.499999 -52.677662
v 123.889252 0.499999 -55.786736
v 123.889252 -0.499999 -55.786736
v 134.519638 0.499999 -39.877243
v 134.519638 -0.499999 -39.877243
v 135.000000 0.499999 -34.999981
v 135.000000 -0.499999 -34.999981
v 119.567093 0.499999 -58.096992
v 119.567093 -0.499999 -58.096992
v 133.096985 0.499999 -44.567074
v 133.096985 -0.499999 -44.567074
v 110.000008 0.499999 -60.000000
v 110.000008 -0.499999 -60.000000
v 114.877266 0.499999 -59.519634
v 114.877266 -0.499999 -59.519634
v 109.999992 0.499999 -50.000004
v 109.999992 -0.499999 -50.000000
v 124.711777 0.499999 -37.926357
v 124.711777 -0.499999 -37.926357
v 118.333542 0.499999 -47.472046
v 118.333542 -0.499999 -47.472046
v 125.000000 0.499999 -35.000004
v 124.999985 -0.499999 -35.000004
v 123.858185 0.499999 -40.740253
v 123.858170 -0.499999 -40.740250
v 120.606598 0.499999 -45.606609
v 120.606583 -0.499999 -45.606606
v 122.472031 0.499999 -43.333553
v 122.472031 -0.499999 -43.333553
v 115.740234 0.499999 -48.858196
v 115.740234 -0.499999 -48.858192
v 112.926353 0.499999 -49.711784
v 112.926346 -0.499999 -49.711781
v 122.472031 0.499999 43.333553
v 122.472031 -0.499999 43.333553
v 109.999977 0.499999 50.000004
v 109.999977 -0.499999 50.000000
v 125.000000 0.499999 35.000004
v 124.999985 -0.499999 35.000004
v 112.926353 0.499999 49.711784
v 112.926346 -0.499999 49.711781
v 124.711777 0.499999 37.926357
v 124.711777 -0.499999 37.926357
v 118.333542 0.499999 47.472046
v 118.333542 -0.499999 47.472046
v 120.606598 0.499999 45.606609
v 120.606583 -0.499999 45.606606
v 123.858185 0.499999 40.740250
v 123.858170 -0.499999 40.740250
v 115.740234 0.499999 48.858196
v 115.740234 -0.499999 48.858192
v -10.000000 0.499999 -50.000004
v -10.000000 -0.500000 -50.000004
v -54.999977 0.499999 -50.000008
v -54.999977 -0.499999 -50.000008
v -95.000000 0.499999 50.000004
v -95.000000 -0.499999 50.000004
v -95.000031 0.499999 60.000000
v -95.000023 -0.499999 60.000000
v -95.000008 0.499999 -50.000004
v -95.000000 0.499999 -54.000008
v -95.000000 0.499999 -60.000000
v -95.000008 -0.499999 -50.000004
v -95.000000 -0.499999 -60.000000
v -95.000000 -0.499999 -54.000008
v -94.999992 -0.333333 -55.000000
v -94.999992 -0.166667 -56.000000
v -95.000000 -0.166667 -54.000008
v -94.999992 0.499999 -56.000000
v -94.999992 -0.499999 -56.000000
vt 0.375000 0.250000
vt 0.625000 0.250000
vt 0.625000 0.284483
vt 0.375000 0.284483
vt 0.000000 0.000000
vt 0.000000 0.000000
vt 0.000000 0.000000
vt 0.000000 0.000000
vt 0.000000 0.000000
vt 0.000000 0.000000
vt 0.000000 0.000000
vt 0.000000 0.000000
vt 0.468750 0.666667
vt 0.468750 0.833333
vt 0.500000 0.833333
vt 0.500000 0.666667
vt 0.000000 0.000000
vt 0.000000 0.000000
vt 0.406250 0.666667
vt 0.406250 0.833333
vt 0.437500 0.833333
vt 0.437500 0.666667
vt 0.000000 0.000000
vt 0.000000 0.000000
vt 0.000000 0.000000
vt 0.000000 0.000000
vt 0.625000 0.978448
vt 0.375000 0.978448
vt 0.375000 0.666667
vt 0.375000 0.833333
vt 0.312500 0.666667
vt 0.312500 0.833333
vt 0.343750 0.833333
vt 0.343750 0.666667
vt 0.250000 0.666667
vt 0.250000 0.833333
vt 0.281250 0.833333
vt 0.281250 0.666667
vt 0.000000 0.000000
vt 0.000000 0.000000
vt 0.487500 0.250000
vt 0.512500 0.250000
vt 0.512500 0.000000
vt 0.487500 0.000000
vt 0.512500 0.305556
vt 0.557500 0.312963
vt 0.580000 0.316667
vt 0.500000 0.833333
vt 0.500000 0.666667
vt 0.420000 0.316667
vt 0.442500 0.312963
vt 0.487500 0.305556
vt 0.375000 0.965517
vt 0.625000 0.965517
vt 0.512500 0.517308
vt 0.512500 0.521154
vt 0.512500 0.528846
vt 0.487500 0.528846
vt 0.487500 0.521154
vt 0.491667 0.519231
vt 0.495833 0.517308
vt 0.512500 0.509615
vt 0.375000 0.750000
vt 0.625000 0.750000
vt 0.625000 0.948276
vt 0.375000 0.948276
vt 0.625000 0.552083
vt 0.000000 0.000000
vt 0.000000 0.000000
vt 0.375000 0.552083
vt 0.781250 0.666667
vt 0.781250 0.833333
vt 0.812500 0.833333
vt 0.812500 0.666667
vt 0.750000 0.666667
vt 0.750000 0.833333
vt 0.843750 0.666667
vt 0.843750 0.833333
vt 0.875000 0.833333
vt 0.875000 0.666667
vt 0.906250 0.833333
vt 0.906250 0.666667
vt 0.937500 0.833333
vt 0.937500 0.666667
vt 0.968750 0.666667
vt 0.968750 0.833333
vt 1.000000 0.833333
vt 1.000000 0.666667
vt 0.718750 0.666667
vt 0.718750 0.833333
vt 0.750000 0.833333
vt 0.750000 0.666667
vt 0.625000 0.666667
vt 0.625000 0.833333
vt 0.656250 0.833333
vt 0.656250 0.666667
vt 0.687500 0.833333
vt 0.687500 0.666667
vt 0.500000 0.666667
vt 0.500000 0.833333
vt 0.531250 0.833333
vt 0.531250 0.666667
vt 0.593750 0.666667
vt 0.593750 0.833333
vt 0.562500 0.666667
vt 0.562500 0.833333
vt 0.487500 0.500000
vt 0.512500 0.500000
vt 0.512500 0.416667
vt 0.512500 0.342593
vt 0.487500 0.342593
vt 0.487500 0.416667
vt 0.000000 0.000000
vt 0.000000 0.000000
vt 0.000000 0.000000
vt 0.000000 0.000000
vt 0.000000 0.000000
vt 0.000000 0.000000
vt 0.000000 0.000000
vt 0.000000 0.000000
vt 0.000000 0.000000
vt 0.000000 0.000000
vt 0.000000 0.000000
vt 0.000000 0.000000
vt 0.000000 0.000000
vt 0.000000 0.000000
vt 0.375000 0.478448
vt 0.625000 0.478448
vt 0.500000 0.833333
vt 0.442500 0.350000
vt 0.420000 0.333908
vt 0.375000 0.301724
vt 0.000000 0.000000
vt 0.557500 0.350000
vt 0.500000 0.666667
vt 0.512500 0.517308
vt 0.512500 0.509615
vt 0.487500 0.509615
vt 0.487500 0.517308
vt 0.487500 0.528846
vt 0.512500 0.528846
vt 0.625000 0.301724
vt 0.580000 0.333908
vt 0.487500 0.517308
vt 0.487500 0.509615
vn 0.0000 0.0000 -1.0000
vn -1.0000 -0.0000 0.0000
vn -0.8819 0.0000 0.4714
vn -0.9569 0.0000 0.2903
vn 0.0980 -0.0000 -0.9952
vn -0.7730 0.0000 0.6344
vn 0.4714 -0.0000 -0.8819
vn -0.2903 -0.0000 0.9569
vn -0.0980 0.0000 0.9952
vn 0.6344 0.0000 -0.7730
vn 0.8819 0.0000 -0.4714
vn 0.9952 0.0000 -0.0980
vn -0.4714 0.0000 0.8819
vn 0.2903 -0.0000 -0.9569
vn -0.9952 0.0000 0.0980
vn -0.6344 0.0000 0.7730
vn 0.9569 0.0000 -0.2903
vn 0.7730 -0.0000 -0.6344
vn 1.0000 0.0000 0.0000
vn -0.0000 1.0000 0.0000
vn 0.0000 -1.0000 0.0000
vn 0.0000 0.0000 1.0000
vn -0.9952 0.0000 -0.0980
vn -0.7730 0.0000 -0.6344
vn -0.8819 0.0000 -0.4714
vn -0.0980 0.0000 -0.9952
vn -0.6344 0.0000 -0.7730
vn -0.4714 0.0000 -0.8819
vn -0.9569 0.0000 -0.2903
vn -0.2903 0.0000 -0.9569
usemtl Material
s off
f 2/1/1 1/2/1 49/3/1 51/4/1
f 2/1/2 12/5/2 11/6/2 1/2/2
f 3/7/3 15/8/3 16/9/3 4/10/3
f 10/11/4 16/9/4 15/8/4 9/12/4
f 30/13/5 29/14/5 31/15/5 32/16/5
f 4/10/6 6/17/6 5/18/6 3/7/6
f 38/19/7 37/20/7 33/21/7 34/22/7
f 19/23/8 13/24/8 14/25/8 20/26/8
f 17/27/9 19/23/9 20/26/9 18/28/9
f 28/29/10 27/30/10 37/20/10 38/19/10
f 22/31/11 21/32/11 23/33/11 24/34/11
f 36/35/12 35/36/12 25/37/12 26/38/12
f 13/24/13 7/39/13 8/40/13 14/25/13
f 34/22/14 33/21/14 29/14/14 30/13/14
f 9/12/15 11/6/15 12/5/15 10/11/15
f 5/18/16 6/17/16 8/40/16 7/39/16
f 26/38/17 25/37/17 21/32/17 22/31/17
f 24/34/18 23/33/18 27/30/18 28/29/18
f 42/41/19 41/42/19 39/43/19 40/44/19
f 35/36/19 36/35/19 40/44/19 39/43/19
f 11/6/20 9/12/20 15/8/20 3/7/20 5/18/20 7/39/20 13/24/20 19/23/20 17/27/20 31/15/20 29/14/20 33/21/20 37/20/20 27/30/20 23/33/20 21/32/20 25/37/20 35/36/20 39/43/20 41/42/20 47/45/20 118/46/20 48/47/20 1/2/20
f 32/16/1 31/15/1 43/48/1 44/49/1
f 1/2/20 48/47/20 49/3/20
f 6/17/21 4/10/21 16/9/21 10/11/21 12/5/21 2/1/21 52/50/21 122/51/21 50/52/21 42/41/21 40/44/21 36/35/21 26/38/21 22/31/21 24/34/21 28/29/21 38/19/21 34/22/21 30/13/21 32/16/21 18/28/21 20/26/21 14/25/21 8/40/21
f 18/28/21 32/16/21 44/49/21 46/53/21
f 45/54/20 43/48/20 31/15/20 17/27/20
f 51/4/21 52/50/21 2/1/21
f 46/53/22 45/54/22 17/27/22 18/28/22
f 48/55/19 118/56/19 47/57/19 50/58/19 122/59/19 123/60/19 124/61/19 49/62/19
f 50/52/22 47/45/22 41/42/22 42/41/22
f 54/63/22 53/64/22 115/65/22 116/66/22
f 53/64/20 63/67/20 79/68/20 95/69/20
f 64/70/19 63/67/19 53/64/19 54/63/19
f 76/71/4 75/72/4 81/73/4 82/74/4
f 80/75/15 79/76/15 75/72/15 76/71/15
f 86/77/6 85/78/6 83/79/6 84/80/6
f 84/80/16 83/79/16 77/81/16 78/82/16
f 78/82/13 77/81/13 87/83/13 88/84/13
f 90/85/9 89/86/9 73/87/9 74/88/9
f 82/74/3 81/73/3 85/78/3 86/77/3
f 88/84/8 87/83/8 89/86/8 90/85/8
f 100/89/23 99/90/23 95/91/23 96/92/23
f 104/93/24 103/94/24 91/95/24 92/96/24
f 92/96/25 91/95/25 105/97/25 106/98/25
f 94/99/26 93/100/26 97/101/26 98/102/26
f 102/103/27 101/104/27 103/94/27 104/93/27
f 108/105/28 107/106/28 101/104/28 102/103/28
f 106/98/29 105/97/29 99/90/29 100/89/29
f 98/102/30 97/101/30 107/106/30 108/105/30
f 110/107/22 109/108/22 111/109/22 117/110/22 120/111/22 112/112/22
f 61/113/12 63/67/12 64/70/12 62/114/12
f 62/114/17 68/115/17 67/116/17 61/113/17
f 55/117/11 67/116/11 68/115/11 56/118/11
f 55/117/18 56/118/18 58/119/18 57/120/18
f 57/120/10 58/119/10 60/121/10 59/122/10
f 65/123/7 59/122/7 60/121/7 66/124/7
f 71/125/14 65/123/14 66/124/14 72/126/14
f 70/127/5 69/128/5 71/125/5 72/126/5
f 53/64/20 95/69/20 99/90/20 105/97/20 91/95/20 103/94/20 101/104/20 107/106/20 97/101/20 93/100/20 113/129/20 115/65/20
f 59/122/20 65/123/20 71/125/20 69/128/20 73/87/20 89/86/20 87/83/20 77/81/20 83/79/20 85/78/20 81/73/20 75/72/20 79/76/20 63/67/20 61/113/20 67/116/20 55/117/20 57/120/20
f 70/127/21 72/126/21 66/124/21 60/121/21 58/119/21 56/118/21 68/115/21 62/114/21 64/70/21 80/75/21 76/71/21 82/74/21 86/77/21 84/80/21 78/82/21 88/84/21 90/85/21 74/88/21 110/107/21 112/112/21 122/130/21 127/131/21 121/132/21
f 54/63/21 96/133/21 80/75/21 64/70/21
f 80/75/2 96/133/2 95/91/2 79/68/2
f 120/111/21 122/130/21 112/112/21
f 118/134/20 117/110/20 111/109/20
f 116/66/21 114/135/21 94/99/21 98/102/21 108/105/21 102/103/21 104/93/21 92/96/21 106/98/21 100/89/21 96/92/21 54/63/21
f 118/56/2 126/136/2 119/137/2 121/138/2 127/139/2 122/59/2 120/140/2 117/141/2
f 119/142/20 126/143/20 118/134/20 111/109/20 109/108/20 73/87/20 69/128/20
f 114/135/1 113/129/1 93/100/1 94/99/1
f 121/132/1 119/142/1 69/128/1 70/127/1
f 49/62/19 124/61/19 123/60/19 122/59/19 52/144/19 51/145/19
f 74/88/22 73/87/22 109/108/22 110/107/22
l 47 125
l 117 125
l 52 123
l 123 125
l 119 124
