# Blender v2.81 (sub 16) OBJ File: 'TownCenter_Firepit.blend'
# www.blender.org
mtllib TownCenter_Firepit.mtl
o Cylinder
v 0.000000 0.000000 -2.000000
v 0.000000 1.000000 -2.000000
v 0.390181 0.000000 -1.961571
v 0.390181 1.000000 -1.961571
v 0.765367 0.000000 -1.847759
v 0.765367 1.000000 -1.847759
v 1.111140 0.000000 -1.662939
v 1.111140 1.000000 -1.662939
v 1.414214 0.000000 -1.414214
v 1.414214 1.000000 -1.414214
v 1.662939 0.000000 -1.111140
v 1.662939 1.000000 -1.111140
v 1.847759 0.000000 -0.765367
v 1.847759 1.000000 -0.765367
v 1.961571 0.000000 -0.390181
v 1.961571 1.000000 -0.390181
v 2.000000 0.000000 -0.000000
v 2.000000 1.000000 -0.000000
v 1.961571 0.000000 0.390180
v 1.961571 1.000000 0.390180
v 1.847759 0.000000 0.765367
v 1.847759 1.000000 0.765367
v 1.662939 0.000000 1.111140
v 1.662939 1.000000 1.111140
v 1.414214 0.000000 1.414214
v 1.414214 1.000000 1.414214
v 1.111140 0.000000 1.662939
v 1.111140 1.000000 1.662939
v 0.765367 0.000000 1.847759
v 0.765367 1.000000 1.847759
v 0.390180 0.000000 1.961571
v 0.390180 1.000000 1.961571
v -0.000001 0.000000 2.000000
v -0.000001 1.000000 2.000000
v -0.390181 0.000000 1.961570
v -0.390181 1.000000 1.961570
v -0.765368 0.000000 1.847759
v -0.765368 1.000000 1.847759
v -1.111141 0.000000 1.662939
v -1.111141 1.000000 1.662939
v -1.414214 0.000000 1.414213
v -1.414214 1.000000 1.414213
v -1.662940 0.000000 1.111139
v -1.662940 1.000000 1.111139
v -1.847760 0.000000 0.765365
v -1.847760 1.000000 0.765365
v -1.961571 0.000000 0.390179
v -1.961571 1.000000 0.390179
v -2.000000 0.000000 -0.000002
v -2.000000 1.000000 -0.000002
v -1.961570 0.000000 -0.390183
v -1.961570 1.000000 -0.390183
v -1.847758 0.000000 -0.765369
v -1.847758 1.000000 -0.765369
v -1.662938 0.000000 -1.111143
v -1.662938 1.000000 -1.111143
v -1.414212 0.000000 -1.414215
v -1.414212 1.000000 -1.414215
v -1.111138 0.000000 -1.662941
v -1.111138 1.000000 -1.662941
v -0.765364 0.000000 -1.847760
v -0.765364 1.000000 -1.847760
v -0.390178 0.000000 -1.961571
v -0.390178 1.000000 -1.961571
v 1.247205 1.000000 0.833355
v 1.247205 0.000000 0.833355
v 0.000000 1.000000 -1.500000
v 0.000000 0.000000 -1.500000
v -0.292633 1.000000 -1.471178
v -0.292633 0.000000 -1.471178
v -0.574023 1.000000 -1.385820
v -0.574023 0.000000 -1.385820
v -1.385820 1.000000 0.574024
v -1.385820 0.000000 0.574024
v -1.247205 1.000000 0.833354
v -1.247205 0.000000 0.833354
v -1.471178 1.000000 0.292634
v -1.471178 0.000000 0.292634
v -1.060661 1.000000 1.060660
v -1.060661 -0.000000 1.060660
v -0.292636 1.000000 1.471178
v -0.292636 0.000000 1.471178
v -0.000000 1.000000 1.500000
v -0.000000 0.000000 1.500000
v -0.574026 1.000000 1.385819
v -0.574026 -0.000000 1.385819
v 1.471178 1.000000 -0.292636
v 1.471178 0.000000 -0.292636
v 0.833355 1.000000 -1.247204
v 0.833355 0.000000 -1.247204
v 1.500000 1.000000 -0.000000
v 1.500000 0.000000 -0.000000
v 1.385819 1.000000 -0.574025
v 1.385819 0.000000 -0.574025
v 0.292635 1.000000 1.471178
v 0.292635 0.000000 1.471178
v -1.060659 1.000000 -1.060662
v -1.060659 0.000000 -1.060662
v -0.833354 1.000000 -1.247205
v -0.833354 0.000000 -1.247205
v -1.247203 1.000000 -0.833357
v -1.247203 0.000000 -0.833357
v 1.471178 1.000000 0.292635
v 1.471178 0.000000 0.292635
v 0.833355 1.000000 1.247205
v 0.833355 0.000000 1.247205
v 1.060660 1.000000 1.060660
v 1.060660 0.000000 1.060660
v 1.385819 1.000000 0.574025
v 1.385819 0.000000 0.574025
v -1.500000 1.000000 -0.000001
v -1.500000 0.000000 -0.000001
v -0.833356 1.000000 1.247204
v -0.833356 -0.000000 1.247204
v -1.471178 1.000000 -0.292637
v -1.471178 0.000000 -0.292637
v 1.060660 1.000000 -1.060660
v 1.060660 0.000000 -1.060660
v 0.574025 1.000000 1.385819
v 0.574025 0.000000 1.385819
v 1.247205 1.000000 -0.833355
v 1.247205 0.000000 -0.833355
v -1.385819 1.000000 -0.574027
v -1.385818 0.000000 -0.574027
v 0.574025 1.000000 -1.385819
v 0.574025 0.000000 -1.385819
v 0.292636 1.000000 -1.471178
v 0.292636 0.000000 -1.471178
vt 1.000000 0.500000
vt 1.000000 1.000000
vt 0.968750 1.000000
vt 0.968750 0.500000
vt 0.937500 1.000000
vt 0.937500 0.500000
vt 0.906250 1.000000
vt 0.906250 0.500000
vt 0.875000 1.000000
vt 0.875000 0.500000
vt 0.843750 1.000000
vt 0.843750 0.500000
vt 0.812500 1.000000
vt 0.812500 0.500000
vt 0.781250 1.000000
vt 0.781250 0.500000
vt 0.750000 1.000000
vt 0.750000 0.500000
vt 0.718750 1.000000
vt 0.718750 0.500000
vt 0.687500 1.000000
vt 0.687500 0.500000
vt 0.656250 1.000000
vt 0.656250 0.500000
vt 0.625000 1.000000
vt 0.625000 0.500000
vt 0.593750 1.000000
vt 0.593750 0.500000
vt 0.562500 1.000000
vt 0.562500 0.500000
vt 0.531250 1.000000
vt 0.531250 0.500000
vt 0.500000 1.000000
vt 0.500000 0.500000
vt 0.468750 1.000000
vt 0.468750 0.500000
vt 0.437500 1.000000
vt 0.437500 0.500000
vt 0.406250 1.000000
vt 0.406250 0.500000
vt 0.375000 1.000000
vt 0.375000 0.500000
vt 0.343750 1.000000
vt 0.343750 0.500000
vt 0.312500 1.000000
vt 0.312500 0.500000
vt 0.281250 1.000000
vt 0.281250 0.500000
vt 0.250000 1.000000
vt 0.250000 0.500000
vt 0.218750 1.000000
vt 0.218750 0.500000
vt 0.187500 1.000000
vt 0.187500 0.500000
vt 0.156250 1.000000
vt 0.156250 0.500000
vt 0.125000 1.000000
vt 0.125000 0.500000
vt 0.093750 1.000000
vt 0.093750 0.500000
vt 0.062500 1.000000
vt 0.062500 0.500000
vt 0.296822 0.485388
vt 0.250000 0.490000
vt 0.203179 0.485389
vt 0.158156 0.471731
vt 0.116663 0.449553
vt 0.080295 0.419706
vt 0.050447 0.383337
vt 0.028269 0.341844
vt 0.014612 0.296822
vt 0.010000 0.250000
vt 0.070000 0.250000
vt 0.073459 0.285117
vt 0.083702 0.318883
vt 0.100336 0.350003
vt 0.122721 0.377279
vt 0.149998 0.399665
vt 0.181117 0.416298
vt 0.214884 0.426541
vt 0.250000 0.430000
vt 0.285116 0.426541
vt 0.318883 0.416298
vt 0.350003 0.399665
vt 0.377279 0.377279
vt 0.399664 0.350003
vt 0.416298 0.318883
vt 0.426541 0.285116
vt 0.430000 0.250000
vt 0.490000 0.250000
vt 0.485388 0.296822
vt 0.471731 0.341844
vt 0.449553 0.383337
vt 0.419706 0.419706
vt 0.383337 0.449553
vt 0.341844 0.471731
vt 0.031250 1.000000
vt 0.031250 0.500000
vt 0.000000 1.000000
vt 0.000000 0.500000
vt 0.750000 0.490000
vt 0.796822 0.485388
vt 0.841844 0.471731
vt 0.883337 0.449553
vt 0.919706 0.419706
vt 0.949553 0.383337
vt 0.971731 0.341844
vt 0.985388 0.296822
vt 0.990000 0.250000
vt 0.930000 0.250000
vt 0.926541 0.285116
vt 0.916298 0.318883
vt 0.899665 0.350003
vt 0.877279 0.377279
vt 0.850003 0.399664
vt 0.818883 0.416298
vt 0.785116 0.426541
vt 0.750000 0.430000
vt 0.714884 0.426541
vt 0.681117 0.416298
vt 0.649998 0.399665
vt 0.622721 0.377279
vt 0.600336 0.350003
vt 0.583702 0.318883
vt 0.573459 0.285116
vt 0.570000 0.250000
vt 0.510000 0.250000
vt 0.514612 0.296822
vt 0.528269 0.341844
vt 0.550447 0.383337
vt 0.580295 0.419706
vt 0.616663 0.449553
vt 0.658156 0.471731
vt 0.703179 0.485389
vt 0.718750 0.750000
vt 0.718750 0.940114
vt 0.750000 0.940114
vt 0.750000 0.750000
vt 0.625000 0.750000
vt 0.625000 0.940114
vt 0.656250 0.940114
vt 0.656250 0.750000
vt 0.687500 0.940114
vt 0.687500 0.750000
vt 0.218750 0.750000
vt 0.218750 0.940114
vt 0.250000 0.940114
vt 0.250000 0.750000
vt 0.781250 0.750000
vt 0.781250 0.940114
vt 0.812500 0.940114
vt 0.812500 0.750000
vt 0.843750 0.750000
vt 0.843750 0.940114
vt 0.875000 0.940114
vt 0.875000 0.750000
vt 0.000000 0.750000
vt 0.000000 0.940114
vt 0.031250 0.940114
vt 0.031250 0.750000
vt 0.468750 0.750000
vt 0.468750 0.940114
vt 0.500000 0.940114
vt 0.500000 0.750000
vt 0.156250 0.750000
vt 0.156250 0.940114
vt 0.187500 0.940114
vt 0.187500 0.750000
vt 0.531250 0.940114
vt 0.531250 0.750000
vt 0.062500 0.940114
vt 0.062500 0.750000
vt 0.906250 0.940114
vt 0.906250 0.750000
vt 0.406250 0.750000
vt 0.406250 0.940114
vt 0.437500 0.940114
vt 0.437500 0.750000
vt 0.426541 0.214884
vt 0.416298 0.181117
vt 0.399664 0.149997
vt 0.377279 0.122721
vt 0.350003 0.100335
vt 0.318883 0.083702
vt 0.285116 0.073459
vt 0.250000 0.070000
vt 0.214884 0.073459
vt 0.181117 0.083702
vt 0.149997 0.100336
vt 0.122721 0.122721
vt 0.100335 0.149997
vt 0.083701 0.181117
vt 0.073459 0.214884
vt 0.014611 0.203179
vt 0.028269 0.158156
vt 0.050447 0.116663
vt 0.080294 0.080294
vt 0.116663 0.050447
vt 0.158156 0.028269
vt 0.203178 0.014612
vt 0.250000 0.010000
vt 0.296822 0.014612
vt 0.341844 0.028269
vt 0.383337 0.050447
vt 0.419706 0.080294
vt 0.449553 0.116663
vt 0.471731 0.158156
vt 0.485388 0.203178
vt 0.937500 0.940114
vt 0.937500 0.750000
vt 0.593750 0.750000
vt 0.593750 0.940114
vt 0.093750 0.750000
vt 0.093750 0.940114
vt 0.125000 0.940114
vt 0.125000 0.750000
vt 0.562500 0.750000
vt 0.562500 0.940114
vt 0.375000 0.750000
vt 0.375000 0.940114
vt 0.312500 0.750000
vt 0.312500 0.940114
vt 0.343750 0.940114
vt 0.343750 0.750000
vt 0.968750 0.750000
vt 0.968750 0.940114
vt 1.000000 0.940114
vt 1.000000 0.750000
vt 0.281250 0.940114
vt 0.281250 0.750000
vt 0.573458 0.214884
vt 0.583701 0.181117
vt 0.600335 0.149997
vt 0.622721 0.122721
vt 0.649997 0.100335
vt 0.681117 0.083702
vt 0.714884 0.073459
vt 0.750000 0.070000
vt 0.785116 0.073458
vt 0.818883 0.083702
vt 0.850003 0.100335
vt 0.877279 0.122721
vt 0.899664 0.149997
vt 0.916298 0.181117
vt 0.926541 0.214884
vt 0.985388 0.203178
vt 0.971731 0.158156
vt 0.949553 0.116663
vt 0.919706 0.080294
vt 0.883337 0.050447
vt 0.841844 0.028269
vt 0.796822 0.014612
vt 0.750000 0.010000
vt 0.703178 0.014612
vt 0.658156 0.028269
vt 0.616663 0.050447
vt 0.580294 0.080294
vt 0.550447 0.116663
vt 0.528269 0.158156
vt 0.514611 0.203179
vn 0.0980 0.0000 -0.9952
vn 0.2903 0.0000 -0.9569
vn 0.4714 0.0000 -0.8819
vn 0.6344 0.0000 -0.7730
vn 0.7730 0.0000 -0.6344
vn 0.8819 0.0000 -0.4714
vn 0.9569 0.0000 -0.2903
vn 0.9952 0.0000 -0.0980
vn 0.9952 0.0000 0.0980
vn 0.9569 0.0000 0.2903
vn 0.8819 0.0000 0.4714
vn 0.7730 0.0000 0.6344
vn 0.6344 0.0000 0.7730
vn 0.4714 0.0000 0.8819
vn 0.2903 0.0000 0.9569
vn 0.0980 0.0000 0.9952
vn -0.0980 0.0000 0.9952
vn -0.2903 0.0000 0.9569
vn -0.4714 0.0000 0.8819
vn -0.6344 0.0000 0.7730
vn -0.7730 0.0000 0.6344
vn -0.8819 0.0000 0.4714
vn -0.9569 0.0000 0.2903
vn -0.9952 0.0000 0.0980
vn -0.9952 0.0000 -0.0980
vn -0.9569 0.0000 -0.2903
vn -0.8819 0.0000 -0.4714
vn -0.7730 0.0000 -0.6344
vn -0.6344 0.0000 -0.7730
vn -0.4714 0.0000 -0.8819
vn 0.0000 1.0000 0.0000
vn -0.2903 0.0000 -0.9569
vn -0.0980 0.0000 -0.9952
vn -0.0000 -1.0000 0.0000
usemtl None
s off
f 1/1/1 2/2/1 4/3/1 3/4/1
f 3/4/2 4/3/2 6/5/2 5/6/2
f 5/6/3 6/5/3 8/7/3 7/8/3
f 7/8/4 8/7/4 10/9/4 9/10/4
f 9/10/5 10/9/5 12/11/5 11/12/5
f 11/12/6 12/11/6 14/13/6 13/14/6
f 13/14/7 14/13/7 16/15/7 15/16/7
f 15/16/8 16/15/8 18/17/8 17/18/8
f 17/18/9 18/17/9 20/19/9 19/20/9
f 19/20/10 20/19/10 22/21/10 21/22/10
f 21/22/11 22/21/11 24/23/11 23/24/11
f 23/24/12 24/23/12 26/25/12 25/26/12
f 25/26/13 26/25/13 28/27/13 27/28/13
f 27/28/14 28/27/14 30/29/14 29/30/14
f 29/30/15 30/29/15 32/31/15 31/32/15
f 31/32/16 32/31/16 34/33/16 33/34/16
f 33/34/17 34/33/17 36/35/17 35/36/17
f 35/36/18 36/35/18 38/37/18 37/38/18
f 37/38/19 38/37/19 40/39/19 39/40/19
f 39/40/20 40/39/20 42/41/20 41/42/20
f 41/42/21 42/41/21 44/43/21 43/44/21
f 43/44/22 44/43/22 46/45/22 45/46/22
f 45/46/23 46/45/23 48/47/23 47/48/23
f 47/48/24 48/47/24 50/49/24 49/50/24
f 49/50/25 50/49/25 52/51/25 51/52/25
f 51/52/26 52/51/26 54/53/26 53/54/26
f 53/54/27 54/53/27 56/55/27 55/56/27
f 55/56/28 56/55/28 58/57/28 57/58/28
f 57/58/29 58/57/29 60/59/29 59/60/29
f 59/60/30 60/59/30 62/61/30 61/62/30
f 4/63/31 2/64/31 64/65/31 62/66/31 60/67/31 58/68/31 56/69/31 54/70/31 52/71/31 50/72/31 111/73/31 115/74/31 123/75/31 101/76/31 97/77/31 99/78/31 71/79/31 69/80/31 67/81/31 127/82/31 125/83/31 89/84/31 117/85/31 121/86/31 93/87/31 87/88/31 91/89/31 18/90/31 16/91/31 14/92/31 12/93/31 10/94/31 8/95/31 6/96/31
f 61/62/32 62/61/32 64/97/32 63/98/32
f 63/98/33 64/97/33 2/99/33 1/100/33
f 1/101/34 3/102/34 5/103/34 7/104/34 9/105/34 11/106/34 13/107/34 15/108/34 17/109/34 92/110/34 88/111/34 94/112/34 122/113/34 118/114/34 90/115/34 126/116/34 128/117/34 68/118/34 70/119/34 72/120/34 100/121/34 98/122/34 102/123/34 124/124/34 116/125/34 112/126/34 49/127/34 51/128/34 53/129/34 55/130/34 57/131/34 59/132/34 61/133/34 63/134/34
f 104/135/25 103/136/25 91/137/25 92/138/25
f 108/139/28 107/140/28 65/141/28 66/142/28
f 66/142/27 65/141/27 109/143/27 110/144/27
f 116/145/9 115/146/9 111/147/9 112/148/9
f 88/149/23 87/150/23 93/151/23 94/152/23
f 92/138/24 91/137/24 87/150/24 88/149/24
f 122/153/21 121/154/21 117/155/21 118/156/21
f 68/157/16 67/158/16 69/159/16 70/160/16
f 82/161/1 81/162/1 83/163/1 84/164/1
f 102/165/11 101/166/11 123/167/11 124/168/11
f 84/164/33 83/163/33 95/169/33 96/170/33
f 70/160/15 69/159/15 71/171/15 72/172/15
f 118/156/20 117/155/20 89/173/20 90/174/20
f 114/175/3 113/176/3 85/177/3 86/178/3
f 18/90/31 91/89/31 103/179/31 109/180/31 65/181/31 107/182/31 105/183/31 119/184/31 95/185/31 83/186/31 81/187/31 85/188/31 113/189/31 79/190/31 75/191/31 73/192/31 77/193/31 111/73/31 50/72/31 48/194/31 46/195/31 44/196/31 42/197/31 40/198/31 38/199/31 36/200/31 34/201/31 32/202/31 30/203/31 28/204/31 26/205/31 24/206/31 22/207/31 20/208/31
f 90/174/19 89/173/19 125/209/19 126/210/19
f 106/211/29 105/212/29 107/140/29 108/139/29
f 100/213/13 99/214/13 97/215/13 98/216/13
f 124/168/10 123/167/10 115/146/10 116/145/10
f 120/217/30 119/218/30 105/212/30 106/211/30
f 80/219/4 79/220/4 113/176/4 114/175/4
f 74/221/6 73/222/6 75/223/6 76/224/6
f 128/225/17 127/226/17 67/227/17 68/228/17
f 94/152/22 93/151/22 121/154/22 122/153/22
f 112/148/8 111/147/8 77/229/8 78/230/8
f 110/144/26 109/143/26 103/136/26 104/135/26
f 86/178/2 85/177/2 81/162/2 82/161/2
f 72/172/14 71/171/14 99/214/14 100/213/14
f 126/210/18 125/209/18 127/226/18 128/225/18
f 96/170/32 95/169/32 119/218/32 120/217/32
f 78/230/7 77/229/7 73/222/7 74/221/7
f 98/216/12 97/215/12 101/166/12 102/165/12
f 49/127/34 112/126/34 78/231/34 74/232/34 76/233/34 80/234/34 114/235/34 86/236/34 82/237/34 84/238/34 96/239/34 120/240/34 106/241/34 108/242/34 66/243/34 110/244/34 104/245/34 92/110/34 17/109/34 19/246/34 21/247/34 23/248/34 25/249/34 27/250/34 29/251/34 31/252/34 33/253/34 35/254/34 37/255/34 39/256/34 41/257/34 43/258/34 45/259/34 47/260/34
f 76/224/5 75/223/5 79/220/5 80/219/5
